<?xml version="1.0" encoding="UTF-8" standalone="no"?>
<!-- Created with Inkscape (http://www.inkscape.org/) -->

<svg
   xmlns:dc="http://purl.org/dc/elements/1.1/"
   xmlns:cc="http://creativecommons.org/ns#"
   xmlns:rdf="http://www.w3.org/1999/02/22-rdf-syntax-ns#"
   xmlns:svg="http://www.w3.org/2000/svg"
   xmlns="http://www.w3.org/2000/svg"
   version="1.1"
   width="8.4142895"
   height="8.41327"
   id="svg2"
   xml:space="preserve"><metadata
     id="metadata8"><rdf:RDF><cc:Work
         rdf:about=""><dc:format>image/svg+xml</dc:format><dc:type
           rdf:resource="http://purl.org/dc/dcmitype/StillImage" /><dc:title></dc:title></cc:Work></rdf:RDF></metadata><defs
     id="defs6" /><g
     transform="matrix(1.25,0,0,-1.25,-414.66192,573.38775)"
     id="g10" /><g
     transform="translate(1.7716224,0)"
     id="layer1"><g
       transform="matrix(1.25,0,0,-1.25,4.67471,8.09975)"
       id="g216"><path
         d="M 0,0 0,4.8 -0.1,4.9 -4.9,4.9 -5,4.8 -5,0 l 0.1,-0.1 4.8,0 L 0,0 z m -4.7,4.5 0.1,0.1 4.2,0 0.1,-0.1 0,-4.2 -0.1,-0.1 -4.2,0 -0.1,0.1 0,4.2 z"
         id="path218"
         style="fill:none;stroke:#ef2735;stroke-width:0.30000001;stroke-linecap:butt;stroke-linejoin:round;stroke-miterlimit:4;stroke-opacity:1;stroke-dasharray:none" /></g><g
       transform="matrix(1.25,0,0,-1.25,6.446335,6.328125)"
       id="g224"><path
         d="M 0,0 0,4.8 -0.1,4.9 -4.9,4.9 -5,4.8 -5,0 l 0.1,-0.1 4.8,0 L 0,0 z m -4.7,4.5 0.1,0.1 4.2,0 0.1,-0.1 0,-4.2 -0.1,-0.1 -4.2,0 -0.1,0.1 0,4.2 z"
         id="path226"
         style="fill:none;stroke:#ef2735;stroke-width:0.30000001;stroke-linecap:butt;stroke-linejoin:round;stroke-miterlimit:4;stroke-opacity:1;stroke-dasharray:none" /></g></g></svg>